REM GENRE Classical
REM DATE 2019
REM COMMENT uploaded by ANothing
CATALOG 0028948367672
PERFORMER "Ludwig van Beethoven"
TITLE "BTHVN 2020: CD 010 Symphony no. 9 (Vienna Cycle)"
FILE "BTHVN 2020 - CD 010.flac" WAVE
  TRACK 01 AUDIO
    TITLE "Symphony no. 9 in d, op. 125: I. Allegro ma non troppo, un poco maestoso"
    INDEX 01 00:00:00
  TRACK 02 AUDIO
    TITLE "Symphony no. 9 in d, op. 125: II. Molto vivace"
    INDEX 01 15:16:58
  TRACK 03 AUDIO
    TITLE "Symphony no. 9 in d, op. 125: III. Adagio molto e cantabile"
    INDEX 01 26:33:58
  TRACK 04 AUDIO
    TITLE "Symphony no. 9 in d, op. 125: IV. Presto - Allegro assai -"
    INDEX 01 44:22:32
  TRACK 05 AUDIO
    TITLE "Symphony no. 9 in d, op. 125: V. Presto - “O Freunde, nicht diese Töne!” – Allegro assai - Allegro assai: “Freude, schöner Götterfunken” - Allegro assai vivace. Alla marcia - Andante maestoso - Allegro energico, sempre ben marcato - Allegro ma non tanto - Prestissimo"
    INDEX 01 52:05:57
